<svg width="24" height="24" viewBox="0 0 24 24" fill="none" xmlns="http://www.w3.org/2000/svg">
<path d="M19 4H5C3.89543 4 3 4.89543 3 6V20C3 21.1046 3.89543 22 5 22H19C20.1046 22 21 21.1046 21 20V6C21 4.89543 20.1046 4 19 4Z" stroke="#3D3A3D" stroke-width="2" stroke-linecap="round" stroke-linejoin="round"/>
<path d="M16 2V6" stroke="#3D3A3D" stroke-width="2" stroke-linecap="round" stroke-linejoin="round"/>
<path d="M8 2V6" stroke="#3D3A3D" stroke-width="2" stroke-linecap="round" stroke-linejoin="round"/>
<path d="M3 10H21" stroke="#3D3A3D" stroke-width="2" stroke-linecap="round" stroke-linejoin="round"/>
<path d="M21 10V20.5L19 21.6543H5L3 20.5V10H21ZM5.5 11C5.22386 11 5 11.2239 5 11.5V14.5C5 14.7761 5.22386 15 5.5 15H8.5C8.77614 15 9 14.7761 9 14.5V11.5C9 11.2239 8.77614 11 8.5 11H5.5Z" fill="#3D3A3D"/>
</svg>
