<svg width="512" height="512" viewBox="0 0 512 512" fill="none" xmlns="http://www.w3.org/2000/svg">
  <!-- Background -->
  <rect width="512" height="512" rx="128" fill="url(#gradient)"/>
  
  <!-- Brain -->
  <path d="M256 120c-44.18 0-80 35.82-80 80 0 35.35 22.73 65.3 54.4 75.68-31.67 10.38-54.4 40.33-54.4 75.68 0 44.18 35.82 80 80 80s80-35.82 80-80c0-35.35-22.73-65.3-54.4-75.68C233.27 265.3 256 235.35 256 200c0-44.18-35.82-80-80-80z" fill="white" opacity="0.9"/>
  
  <!-- Sensory waves -->
  <circle cx="150" cy="200" r="8" fill="white" opacity="0.7"/>
  <circle cx="362" cy="200" r="8" fill="white" opacity="0.7"/>
  <circle cx="150" cy="312" r="8" fill="white" opacity="0.7"/>
  <circle cx="362" cy="312" r="8" fill="white" opacity="0.7"/>
  
  <!-- Connection lines -->
  <path d="M158 200L200 240" stroke="white" stroke-width="3" opacity="0.6"/>
  <path d="M354 200L312 240" stroke="white" stroke-width="3" opacity="0.6"/>
  <path d="M158 312L200 272" stroke="white" stroke-width="3" opacity="0.6"/>
  <path d="M354 312L312 272" stroke="white" stroke-width="3" opacity="0.6"/>
  
  <!-- Gradient definition -->
  <defs>
    <linearGradient id="gradient" x1="0%" y1="0%" x2="100%" y2="100%">
      <stop offset="0%" style="stop-color:#3B82F6;stop-opacity:1" />
      <stop offset="100%" style="stop-color:#1E40AF;stop-opacity:1" />
    </linearGradient>
  </defs>
</svg> 