<svg viewBox="0 0 128 128" xmlns="http://www.w3.org/2000/svg">
  <!-- Background -->
  <rect width="128" height="128" rx="24" fill="#000000"/>
  
  <!-- Brain/thought bubble shape -->
  <g transform="translate(32, 32)">
    <!-- Main brain shape -->
    <ellipse cx="32" cy="28" rx="24" ry="20" fill="#ffffff" opacity="0.9"/>
    
    <!-- Brain segments -->
    <path d="M16 28 Q20 16 32 16 Q44 16 48 28 Q44 40 32 40 Q20 40 16 28" fill="#2563eb" opacity="0.8"/>
    <path d="M20 28 Q24 20 32 20 Q40 20 44 28 Q40 36 32 36 Q24 36 20 28" fill="#3b82f6" opacity="0.9"/>
    
    <!-- Sensory dots -->
    <circle cx="24" cy="24" r="2" fill="#ffffff"/>
    <circle cx="32" cy="20" r="2" fill="#ffffff"/>
    <circle cx="40" cy="24" r="2" fill="#ffffff"/>
    <circle cx="28" cy="32" r="2" fill="#ffffff"/>
    <circle cx="36" cy="32" r="2" fill="#ffffff"/>
    
    <!-- Connection lines -->
    <path d="M24 24 L32 20 L40 24 M28 32 L36 32 M32 20 L32 32" stroke="#ffffff" stroke-width="1" opacity="0.6" fill="none"/>
  </g>
  
  <!-- Bottom accent -->
  <rect x="24" y="96" width="80" height="8" rx="4" fill="#2563eb" opacity="0.6"/>
</svg> 